<?xml version="1.0" encoding="utf-8"?>
<!-- Generator: Adobe Illustrator 19.2.1, SVG Export Plug-In . SVG Version: 6.00 Build 0)  -->
<svg version="1.1" id="layer" xmlns="http://www.w3.org/2000/svg" xmlns:xlink="http://www.w3.org/1999/xlink" x="0px" y="0px"
	 viewBox="0 0 652 652" style="enable-background:new 0 0 652 652;" xml:space="preserve">
<style type="text/css">
	.st0{fill:#212E61;}
</style>
<path class="st0" d="M462.8,280.5H444c-0.8,0-1.4,0.6-1.4,1.4V340c0,0.8,0.6,1.4,1.4,1.4h18.7c0.8,0,1.4-0.6,1.4-1.4v-58.1
	C464.1,281.2,463.5,280.5,462.8,280.5 M546.4,262.7h-18.7c-0.8,0-1.4,0.6-1.4,1.4V340c0,0.8,0.6,1.4,1.4,1.4h18.7
	c0.8,0,1.4-0.6,1.4-1.4v-75.9C547.8,263.3,547.1,262.7,546.4,262.7 M453.4,250.9c-6.6,0-11.9,5.3-11.9,11.8s5.3,11.8,11.9,11.8
	c6.6,0,11.9-5.3,11.9-11.8C465.2,256.2,459.9,250.9,453.4,250.9 M621,288.2v-6.2c0-0.8-0.6-1.4-1.4-1.4h-18.7
	c-0.8,0-1.4,0.6-1.4,1.4v31.7c0,6.6-3.6,10.1-8.7,10.1c-5.1,0-8.4-3.5-8.4-10.1v-31.7c0-0.8-0.6-1.4-1.4-1.4h-18.7
	c-0.8,0-1.4,0.6-1.4,1.4v31.7c0,12.5,1.8,18.4,3.9,21.2c3.7,4.9,9.2,7.9,16.4,7.9c6.5,0,11-3,15-6.1c1.3-1,3.2-1.6,3.2,1.1v5.4
	c-0.1,3.6-2.5,6.7-5.5,8.3c-0.1,0-0.1,0.1-0.2,0.1c-1.4,0.7-3.1,1.2-4.8,1.1c0,0-4.2,0-6.4-0.4c-0.8-0.1-1.6,0.4-1.6,1.2l-1.4,16.1
	c-0.1,0.7,0.4,1.4,1.2,1.5c7,1.1,14.4,0.9,22.3-1.8c12.4-4.2,18-13.3,18-26.5L621,288.2C621,288.2,621,288.2,621,288.2 M512.9,280.5
	h-8.4c-0.8,0-1.4-0.6-1.4-1.4v-15.1c0-0.8-0.6-1.4-1.4-1.4H483c-0.8,0-1.4,0.6-1.4,1.4v15.1c0,0.8-0.6,1.4-1.4,1.4h-5.8
	c-0.8,0-1.4,0.6-1.4,1.4v16c0,0.8,0.6,1.4,1.4,1.4h5.8c0.8,0,1.4,0.6,1.4,1.4V327c0,8.7,6,15.7,15.8,15.7c7.2,0,13.3-1.1,15.9-2.3
	c0.6-0.3,1-0.7,1-1.3v-12.9c0-0.8-0.8-1.5-1.6-1.4c-3.1,0.5-9.6,1.9-9.6-6.3v-17.8c0-0.8,0.6-1.4,1.4-1.4h8.4c0.8,0,1.4-0.6,1.4-1.4
	v-16C514.3,281.2,513.7,280.5,512.9,280.5 M220.7,300.3c7.4,0,11.7-3.6,11.7-9.3v-0.2c0-6.2-4.5-9.3-11.8-9.3h-12.9
	c-0.8,0-1.4,0.6-1.4,1.4v16.1c0,0.8,0.6,1.4,1.4,1.4H220.7z M184.4,264c0-0.8,0.6-1.4,1.4-1.4h35.9c12.1,0,20.4,3.1,25.7,8.5
	c4.6,4.5,7,10.5,7,18.3v0.2c0,11.4-5.8,19.1-14.8,23.4c-0.8,0.4-1,1.3-0.6,2l16.4,23.9c0.4,0.6,0.3,1.5-0.4,1.9
	c-0.2,0.2-0.5,0.2-0.8,0.2h-21.6c-0.6,0-1.2-0.3-1.5-0.8l-14.6-21.9c-0.4-0.7-1.2-1.1-2-1h-6.9c-0.8,0-1.4,0.6-1.4,1.4v21
	c0,0.8-0.6,1.4-1.4,1.4h-19.1c-0.8,0-1.4-0.6-1.4-1.4c0,0,0,0,0,0L184.4,264L184.4,264z M302.4,304.4c0,0.8-0.6,1.4-1.3,1.4H282
	c-0.7,0-1.3-0.6-1.3-1.4c0-5.9,4.7-10.6,10.8-10.6C298,293.7,302.4,298.4,302.4,304.4L302.4,304.4L302.4,304.4z M290.5,279.3
	c-19,0-30.9,14.8-30.9,32.4c0,17.5,13,31,30.9,31c16,0,25.5-6.9,29.9-17.3c0.4-0.9-0.3-1.9-1.3-1.9h-16.4c-0.7,0-1.3,0.3-1.7,0.8
	c-2.1,2.2-4.8,3.6-8.5,3.6c0,0,0,0,0,0l0,0c-7,0-12.5-3.6-12.5-9.6c0-0.8,0.6-1.4,1.4-1.4h0l0,0h39.2c0.8,0,1.4-0.6,1.4-1.4v-3.9
	C321.9,294.2,311,279.3,290.5,279.3L290.5,279.3z M408.4,279.2c-8.4,0-14.4,3.4-19.5,8.8c-0.4,0.4-1.1,0.5-1.5,0.1
	c-0.1-0.1-0.1-0.1-0.2-0.2c-3.4-5.5-9.3-8.6-16.9-8.6c-0.3,0-0.5,0-0.8,0c-6.3,0.2-11.8,3.2-15.5,7.7c-0.6,0.8-1.9,0.3-1.9-0.7v-4.3
	c0-0.7-0.6-1.3-1.3-1.3h0h-18.8c-0.8,0-1.4,0.6-1.4,1.4v58c0,0.8,0.6,1.4,1.4,1.4h18.7c0.8,0,1.4-0.6,1.4-1.4v-31.7
	c0-6.6,3.6-10.1,8.7-10.1c5.1,0,8.4,3.5,8.4,10.1V340c0,0.8,0.6,1.4,1.4,1.4h18.7c0.8,0,1.4-0.6,1.4-1.4v-31.7
	c0-6.6,3.7-10.1,8.8-10.1c5.1,0,8.4,3.5,8.4,10.1V340c0,0.8,0.6,1.4,1.4,1.4h18.7c0.8,0,1.4-0.6,1.4-1.4v-38.5
	C429.3,287.3,421.4,279.2,408.4,279.2 M132.6,321.2l-46.7-34c-2.4-1.7-5.5-1.7-7.9,0l-20.8,15.1c-1.2,0.9-2.7,1.2-4.2,1
	c-1.5-0.2-2.8-1-3.7-2.2c-0.9-1.2-1.2-2.7-1-4.2c0.2-1.5,1-2.8,2.2-3.7l14.8-10.7h0l12.9-9.3c7.2-5.2,17.1-4.6,23.5,1.5
	c1.4,1.4,3.6,1.4,5.2,0.3l25.7-18.7L132.6,321.2L132.6,321.2z M132,334.5l-0.1,0.4c-0.2,1-0.8,2.4-1.5,3.1c-1.9,1.8-4.7,1.9-6.7,0.5
	L101,321.9l-0.2-0.1c-1.4-1-3.6-1-4.9,0.2c-1.6,1.4-1.7,3.8-0.3,5.4c0.2,0.2,0.4,0.4,0.6,0.5l0.3,0.2l20.9,15.2
	c1.2,0.8,2,2.1,2.2,3.5c0.3,2-0.5,3.8-2.1,5l-0.5,0.3c-1.8,1.3-4.3,1.3-6.1,0L85,333.3c-1.4-1-3.6-1-4.9,0.2
	c-1.6,1.4-1.7,3.8-0.3,5.4c0.2,0.2,0.4,0.4,0.6,0.5l21.2,15.4c1.2,0.8,2,2.1,2.2,3.5c0.3,2-0.5,3.8-2.1,5l-0.5,0.3
	c-1.8,1.3-4.3,1.3-6.1,0l-4.7-3.4l-21.2-15.4c-1.4-1-3.6-1-4.9,0.2c-1.6,1.4-1.7,3.8-0.3,5.4c0.2,0.2,0.4,0.4,0.6,0.5l21.2,15.4
	c1.2,0.8,2,2.1,2.2,3.5c0.3,2-0.5,3.8-2.1,5l-0.5,0.3c-1.6,1.2-3.7,1.3-5.5,0.4l-50.7-36.9v-82.2l22,16l6.9,5l-12.6,9.2
	c-3,2.2-5,5.4-5.6,9.1c-0.6,3.6,0.3,7.4,2.5,10.4c2.2,3,5.4,5,9.1,5.6c0.7,0.1,1.5,0.2,2.2,0.2c2.9,0,5.7-0.9,8.2-2.7l17.6-12.8
	c1.4-1,3.2-1,4.6,0l46.2,33.6C131.7,331.1,132.3,332.8,132,334.5L132,334.5z M126.7,250.4l-20.9,15.2c-0.6,0.5-1.5,0.5-2.2,0.1
	c-8.6-5.6-19.7-5.8-28.4-0.4c-0.3,0.1-0.5,0.3-0.8,0.4l-9,6.6l-30.1-21.9L126.7,250.4L126.7,250.4z M139.7,243.4
	c-0.8-0.8-1.8-1.2-2.9-1.2H25.1c-2.3,0-4.1,1.9-4.1,4.1c0,0,0,0,0,0v94.3c0,1.3,0.6,2.6,1.7,3.4l53.7,39h0c2.7,2,6.4,2,9.1,0
	l53.7-39c1.1-0.8,1.7-2,1.7-3.4v-94.4C140.9,245.2,140.5,244.1,139.7,243.4L139.7,243.4z M202.8,380.2c0-2.8-2.1-4.7-5-4.7h-7.1v9.3
	h7.1C200.7,384.8,202.8,383,202.8,380.2L202.8,380.2z M185.6,400.3V371h12.9c6.2,0,9.5,4.2,9.5,9.2c0,5-3.4,9.1-9.5,9.1h-7.8v11
	L185.6,400.3L185.6,400.3z M211.3,400.3v-21.2h4.6v3.1c1.6-2,4.2-3.6,6.9-3.6v4.6c-0.5-0.1-0.9-0.1-1.4-0.1c-2,0-4.6,1.3-5.5,2.9
	v14.5L211.3,400.3 M241.4,389.7c0-3.7-2.2-7-6.1-7c-3.9,0-6.1,3.3-6.1,7c0,3.8,2.2,7.1,6.1,7.1C239.3,396.8,241.4,393.5,241.4,389.7
	L241.4,389.7z M224.4,389.7c0-6.1,4.1-11.1,10.9-11.1c6.8,0,10.9,5,10.9,11.1c0,6.1-4.1,11.2-10.9,11.2
	C228.6,400.8,224.4,395.7,224.4,389.7L224.4,389.7z M276.1,400.3v-13.8c0-2.3-1-3.8-3.5-3.8c-2.1,0-4,1.4-4.9,2.8v14.9h-4.6v-13.8
	c0-2.3-1-3.8-3.5-3.8c-2.1,0-4,1.4-4.9,2.8v14.9h-4.6v-21.2h4.6v2.9c0.9-1.3,3.7-3.4,6.9-3.4c3.2,0,5.1,1.6,5.8,3.9
	c1.2-1.9,4-3.9,7.2-3.9c3.9,0,6.1,2.1,6.1,6.4v15.3L276.1,400.3 M285.8,400.3h4.6v-21.2h-4.6V400.3z M285.3,373.6
	c0-1.6,1.3-2.9,2.8-2.9c0,0,0,0,0,0c1.6,0,2.9,1.3,2.9,2.8c0,0,0,0,0,0c0,1.6-1.3,2.9-2.8,2.9c0,0,0,0,0,0
	C286.6,376.5,285.3,375.2,285.3,373.6C285.3,373.7,285.3,373.6,285.3,373.6L285.3,373.6z M294.6,397.5l2.1-3.3
	c1.5,1.5,4.4,2.9,7.2,2.9c2.8,0,4.2-1.1,4.2-2.8c0-4.2-12.8-1.2-12.8-9.4c0-3.5,3-6.4,8.3-6.4c3.6,0,6.3,1.3,8.2,2.9l-1.9,3.3
	c-1.3-1.4-3.6-2.5-6.3-2.5c-2.4,0-3.9,1.1-3.9,2.6c0,3.7,12.8,0.9,12.8,9.4c0,3.8-3.1,6.6-8.8,6.6
	C300.1,400.8,296.8,399.7,294.6,397.5 M325.7,382.3c-3.9,0-5.8,3-5.9,5.6h12C331.6,385.4,329.9,382.3,325.7,382.3L325.7,382.3z
	 M315,389.7c0-6.1,4.5-11.1,10.8-11.1c6.4,0,10.4,4.8,10.4,11.5v1.1h-16.3c0.4,3.2,2.7,5.8,6.7,5.8c2.1,0,4.5-0.8,6.1-2.4l2.1,3
	c-2.2,2-5.3,3.1-8.6,3.1C319.7,400.8,315,396.4,315,389.7L315,389.7z M338.1,397.5l2.1-3.3c1.5,1.5,4.4,2.9,7.2,2.9
	c2.8,0,4.2-1.1,4.2-2.8c0-4.2-12.8-1.2-12.8-9.4c0-3.5,3-6.4,8.3-6.4c3.6,0,6.3,1.3,8.2,2.9l-1.9,3.3c-1.3-1.4-3.6-2.5-6.3-2.5
	c-2.4,0-3.9,1.1-3.9,2.6c0,3.7,12.8,0.9,12.8,9.4c0,3.8-3.1,6.6-8.8,6.6C343.5,400.8,340.3,399.7,338.1,397.5 M393,385.6
	c0-5.6-3.5-10.1-10-10.1h-5.8v20.3h5.8C389.3,395.8,393,391.2,393,385.6z M372.1,400.3V371H383c9.2,0,15.3,6.1,15.3,14.6
	c0,8.7-6.2,14.7-15.3,14.7H372.1L372.1,400.3z M411.7,382.3c-3.9,0-5.8,3-5.9,5.6h12C417.6,385.4,415.9,382.3,411.7,382.3
	L411.7,382.3z M401,389.7c0-6.1,4.5-11.1,10.8-11.1c6.4,0,10.4,4.8,10.4,11.5v1.1h-16.3c0.4,3.2,2.7,5.8,6.7,5.8
	c2.1,0,4.5-0.8,6.1-2.4l2.1,3c-2.2,2-5.3,3.1-8.6,3.1C405.7,400.8,401,396.4,401,389.7L401,389.7z M425.9,400.3h4.6V371h-4.6V400.3z
	 M435.6,400.3h4.6v-21.2h-4.6V400.3z M435,373.6c0-1.6,1.3-2.9,2.8-2.9c0,0,0,0,0,0c1.6,0,2.9,1.3,2.9,2.8c0,0,0,0,0,0
	c0,1.6-1.3,2.9-2.8,2.9c0,0,0,0,0,0C436.3,376.5,435,375.2,435,373.6C435,373.7,435,373.6,435,373.6L435,373.6z M451.7,400.3
	l-8.7-21.2h5l6.2,15.9l6.2-15.9h4.9l-8.7,21.2H451.7 M475.9,382.3c-3.9,0-5.8,3-5.9,5.6h12C481.8,385.4,480.1,382.3,475.9,382.3
	L475.9,382.3z M465.2,389.7c0-6.1,4.5-11.1,10.8-11.1c6.4,0,10.4,4.8,10.4,11.5v1.1h-16.3c0.4,3.2,2.7,5.8,6.7,5.8
	c2.1,0,4.5-0.8,6.1-2.4l2.1,3c-2.2,2-5.3,3.1-8.6,3.1C469.9,400.8,465.2,396.4,465.2,389.7L465.2,389.7z M490.1,400.3v-21.2h4.6v3.1
	c1.6-2,4.2-3.6,6.9-3.6v4.6c-0.5-0.1-0.9-0.1-1.4-0.1c-2,0-4.6,1.3-5.5,2.9v14.5L490.1,400.3 M513,382.3c-3.9,0-5.8,3-5.9,5.6h12
	C518.9,385.4,517.2,382.3,513,382.3L513,382.3z M502.3,389.7c0-6.1,4.5-11.1,10.8-11.1c6.4,0,10.4,4.8,10.4,11.5v1.1h-16.3
	c0.4,3.2,2.7,5.8,6.7,5.8c2.1,0,4.5-0.8,6.1-2.4l2.1,3c-2.2,2-5.3,3.1-8.6,3.1C507,400.8,502.3,396.4,502.3,389.7L502.3,389.7z
	 M542.1,393.9v-8.4c-1-1.6-3.3-2.9-5.4-2.9c-3.7,0-6,2.9-6,7c0,4.1,2.3,7.1,6,7.1C538.8,396.8,541.1,395.5,542.1,393.9z
	 M542.1,400.3v-2.9c-1.6,2.1-4,3.4-6.8,3.4c-5.4,0-9.4-4.1-9.4-11.2c0-6.9,4-11.1,9.4-11.1c2.7,0,5.1,1.2,6.8,3.5v-11h4.6v29.3
	L542.1,400.3L542.1,400.3z"/>
</svg>
